<?xml version="1.0" standalone="no"?><!DOCTYPE svg PUBLIC "-//W3C//DTD SVG 1.1//EN" "http://www.w3.org/Graphics/SVG/1.1/DTD/svg11.dtd"><svg t="1500209188372" class="icon" style="" viewBox="0 0 1024 1024" version="1.1" xmlns="http://www.w3.org/2000/svg" p-id="2377" xmlns:xlink="http://www.w3.org/1999/xlink" width="200" height="200"><defs><style type="text/css"></style></defs><path d="M889.36448 266.6496 512.16384 643.84 130.01728 261.71392l-0.03072 0.01024c-12.9536-12.48256-30.55616-20.1728-49.96096-20.1728-39.76192 0-71.9872 32.22528-71.9872 71.9872 0 19.4048 7.68 37.0176 20.18304 49.96096L28.18048 363.52l431.9744 431.96416 0.02048-0.02048c13.09696 13.568 31.47776 22.02624 51.8144 22.02624 0.0512 0 0.12288 0 0.17408 0 0.04096 0 0.09216 0 0.16384 0 20.33664 0 38.71744-8.45824 51.79392-22.02624l0.03072 0.02048L996.096 363.52l-0.18432-0.18432c12.40064-12.93312 20.03968-30.47424 20.03968-49.80736 0-39.76192-32.22528-71.9872-71.99744-71.9872C922.112 241.54112 902.57408 251.27936 889.36448 266.6496z" p-id="2378"></path></svg>