<?xml version="1.0" standalone="no"?><!DOCTYPE svg PUBLIC "-//W3C//DTD SVG 1.1//EN" "http://www.w3.org/Graphics/SVG/1.1/DTD/svg11.dtd"><svg t="1500282772556" class="icon" style="" viewBox="0 0 1024 1024" version="1.1" xmlns="http://www.w3.org/2000/svg" p-id="2468" xmlns:xlink="http://www.w3.org/1999/xlink" width="200" height="200"><defs><style type="text/css"></style></defs><path d="M693.079148 887.280152c12.415774-12.57541 12.351306-32.797987-0.192382-45.245484L362.054943 514.209318l329.423755-332.399529c12.447497-12.57541 12.351306-32.797987-0.192382-45.278229-12.57541-12.447497-32.830733-12.351306-45.278229 0.192382L295.91457 490.019383c-0.544399 0.544399-0.672312 1.248434-1.183965 1.791809-0.127913 0.127913-0.287549 0.159636-0.415462 0.287549-6.175653 6.240121-9.279341 14.398942-9.279341 22.527063 0 8.223289 3.168156 16.479323 9.471722 22.718421l353.295442 350.095563C660.376329 899.919007 680.631652 899.822816 693.079148 887.280152z" p-id="2469" fill="#ffffff"></path></svg>